<?xml version="1.0" encoding="UTF-8"?>
<svg version="1.1" xmlns="http://www.w3.org/2000/svg" width="224" height="225">
<path d="M0 0 C73.92 0 147.84 0 224 0 C224 74.25 224 148.5 224 225 C150.08 225 76.16 225 0 225 C0 150.75 0 76.5 0 0 Z " fill="#FEFEFE" transform="translate(0,0)"/>
<path d="M0 0 C1.81242052 -0.02687279 3.62495233 -0.04633715 5.4375 -0.0625 C6.44683594 -0.07410156 7.45617187 -0.08570313 8.49609375 -0.09765625 C11 0 11 0 12 1 C12.20394864 4.33116108 12.31959704 7.66044505 12.42578125 10.99609375 C12.61527344 11.98738281 12.80476563 12.97867188 13 14 C14.85882507 15.36443174 14.85882507 15.36443174 17 16 C19.34858092 18.34858092 19.34352521 18.9757732 19.4375 22.1875 C19.36045131 27.47817695 17.36751163 30.04317384 14 34 C15.65 34 17.3 34 19 34 C19 51.49 19 68.98 19 87 C14.38 87 9.76 87 5 87 C5 78.09 5 69.18 5 60 C4.34 60 3.68 60 3 60 C2.61714844 60.82757813 2.61714844 60.82757813 2.2265625 61.671875 C0.80697926 64.36637058 -0.86132254 66.76778728 -2.625 69.25 C-3.57246094 70.58804688 -3.57246094 70.58804688 -4.5390625 71.953125 C-5.02117187 72.62859375 -5.50328125 73.3040625 -6 74 C-9.92064857 72.69311714 -10.7803216 70.85695653 -13.125 67.5 C-15.38232526 64.10369507 -15.38232526 64.10369507 -18 61 C-18.33 69.25 -18.66 77.5 -19 86 C-23.62 86 -28.24 86 -33 86 C-33 80.38823529 -33 80.38823529 -30.0625 77.3125 C-27.74297052 74.86009717 -27.74297052 74.86009717 -26 72 C-25.34 72 -24.68 72 -24 72 C-23.34 68.7 -22.68 65.4 -22 62 C-22.99 62 -23.98 62 -25 62 C-25.04125 62.969375 -25.0825 63.93875 -25.125 64.9375 C-26.00038653 71.09021674 -30.02221413 75.96727563 -34.25 80.3125 C-43.50143196 85.98951507 -52.01136401 86.51754944 -62.625 86.25 C-64.0247138 86.22988824 -65.42445576 86.21164579 -66.82421875 86.1953125 C-70.21687915 86.14851718 -73.60806384 86.08296363 -77 86 C-77 84.68 -77 83.36 -77 82 C-77.87011719 82.05220703 -77.87011719 82.05220703 -78.7578125 82.10546875 C-83.99746699 82.28704094 -87.44166279 81.89065287 -92 79 C-92.66 78.34 -93.32 77.68 -94 77 C-94 76.01 -94 75.02 -94 74 C-92.35 74.33 -90.7 74.66 -89 75 C-89 75.66 -89 76.32 -89 77 C-87.35 77 -85.7 77 -84 77 C-84 76.34 -84 75.68 -84 75 C-84.66 75 -85.32 75 -86 75 C-86.3125 72.6875 -86.3125 72.6875 -86 70 C-83.6875 68.375 -83.6875 68.375 -81 67 C-78.73962715 65.24495089 -78.07434748 64.36038664 -77.48828125 61.51953125 C-77.43027344 60.62621094 -77.37226562 59.73289063 -77.3125 58.8125 C-77.24675781 57.91144531 -77.18101563 57.01039062 -77.11328125 56.08203125 C-77.07589844 55.39496094 -77.03851563 54.70789063 -77 54 C-79.97 54 -82.94 54 -86 54 C-83.97816968 48.53310102 -80.89986058 44.09855726 -77.625 39.3125 C-77.0475 38.44560547 -76.47 37.57871094 -75.875 36.68554688 C-75.02808594 35.44321289 -75.02808594 35.44321289 -74.1640625 34.17578125 C-73.39763428 33.04523315 -73.39763428 33.04523315 -72.61572266 31.8918457 C-70.3727432 29.26554655 -68.39364689 28.1891486 -64.97631836 27.7253418 C-62.62928969 27.69664427 -60.28474321 27.67450283 -57.9375 27.6875 C-57.08494629 27.68371338 -56.23239258 27.67992676 -55.35400391 27.67602539 C-50.47420998 27.72750392 -46.49711536 28.22804055 -41.875 29.9375 C-38.65246778 31.01501855 -37.59742232 31.28064955 -34.48046875 29.81640625 C-30.31098026 26.684238 -27.23137041 23.06913311 -24 19 C-21.59121794 17.94615785 -20.56065751 17.80933105 -18.0703125 18.65625 C-15.97688431 19.24062076 -15.97688431 19.24062076 -14.3671875 17.9609375 C-11.41043833 14.81842398 -9.24665306 12.23862041 -8 8 C-7.236875 8.185625 -6.47375 8.37125 -5.6875 8.5625 C-2.91032625 9.22819173 -2.91032625 9.22819173 0 8 C0 5.36 0 2.72 0 0 Z " fill="#E7C4E9" transform="translate(143,61)"/>
<path d="M0 0 C3.125 6.25 3.125 6.25 3.11352539 10.17431641 C3.11341209 11.46542831 3.11341209 11.46542831 3.11329651 12.78262329 C3.10813522 13.71287323 3.10297394 14.64312317 3.09765625 15.6015625 C3.0962413 16.55316254 3.09482635 17.50476257 3.09336853 18.48519897 C3.08776012 21.53183097 3.07520619 24.57839013 3.0625 27.625 C3.05748608 29.68749894 3.05292299 31.74999903 3.04882812 33.8125 C3.03778796 38.87502817 3.02051767 43.93750173 3 49 C-0.96 49 -4.92 49 -9 49 C-9 40.09 -9 31.18 -9 22 C-12.51977994 25.51977994 -15.09115077 28.31051584 -17.8125 32.3125 C-18.41707031 33.19550781 -19.02164063 34.07851562 -19.64453125 34.98828125 C-20.09183594 35.65214844 -20.53914063 36.31601563 -21 37 C-24.92064857 35.69311714 -25.7803216 33.85695653 -28.125 30.5 C-30.38232526 27.10369507 -30.38232526 27.10369507 -33 24 C-33.33 32.25 -33.66 40.5 -34 49 C-38.62 49 -43.24 49 -48 49 C-48 43.38823529 -48 43.38823529 -45.0625 40.3125 C-42.74297052 37.86009717 -42.74297052 37.86009717 -41 35 C-40.34 35 -39.68 35 -39 35 C-38.34 31.7 -37.68 28.4 -37 25 C-37.99 25 -38.98 25 -40 25 C-40.04125 25.969375 -40.0825 26.93875 -40.125 27.9375 C-41.00038653 34.09021674 -45.02221413 38.96727563 -49.25 43.3125 C-58.50143196 48.98951507 -67.01136401 49.51754944 -77.625 49.25 C-79.0247138 49.22988824 -80.42445576 49.21164579 -81.82421875 49.1953125 C-85.21687915 49.14851718 -88.60806384 49.08296363 -92 49 C-92 47.68 -92 46.36 -92 45 C-92.87011719 45.05220703 -92.87011719 45.05220703 -93.7578125 45.10546875 C-98.99746699 45.28704094 -102.44166279 44.89065287 -107 42 C-107.66 41.34 -108.32 40.68 -109 40 C-108.67 39.01 -108.34 38.02 -108 37 C-107.33226562 37.65097656 -106.66453125 38.30195313 -105.9765625 38.97265625 C-102.35293534 41.44071727 -99.60205319 41.56325686 -95.375 41.4375 C-94.06273437 41.43621094 -92.75046875 41.43492187 -91.3984375 41.43359375 C-80.69782117 40.7255645 -70.75167328 36.04814114 -60.99023438 31.96484375 C-60.01505859 31.56910156 -59.03988281 31.17335937 -58.03515625 30.765625 C-57.1625415 30.40243164 -56.28992676 30.03923828 -55.39086914 29.66503906 C-52.7502909 28.93054145 -51.56737023 29.22419351 -49 30 C-46.78228936 29.14209817 -46.78228936 29.14209817 -45 28 C-45 26.68 -45 25.36 -45 24 C-43.6105957 22.64379883 -43.6105957 22.64379883 -41.67578125 21.45703125 C-40.97646484 21.02326172 -40.27714844 20.58949219 -39.55664062 20.14257812 C-38.81607422 19.70365234 -38.07550781 19.26472656 -37.3125 18.8125 C-36.59126953 18.36197266 -35.87003906 17.91144531 -35.12695312 17.44726562 C-31.46622335 15.21739644 -28.35144682 13.4377195 -24 13 C-23.87625 13.639375 -23.7525 14.27875 -23.625 14.9375 C-23.315625 15.9584375 -23.315625 15.9584375 -23 17 C-22.34 17.33 -21.68 17.66 -21 18 C-20.62875 17.1646875 -20.62875 17.1646875 -20.25 16.3125 C-19 14 -19 14 -16.9375 11.5 C-15.07970724 9.10284805 -14.58976948 7.86980613 -14 5 C-12.58566794 4.7763663 -11.16832382 4.57173524 -9.75 4.375 C-8.96109375 4.25898437 -8.1721875 4.14296875 -7.359375 4.0234375 C-4.67847541 3.99680605 -3.27305911 4.63407916 -1 6 C-0.67 4.02 -0.34 2.04 0 0 Z " fill="#6042A7" transform="translate(158,98)"/>
<path d="M0 0 C3.80969609 4.65629522 3.80969609 4.65629522 5.02734375 6.85546875 C6.21177819 8.89977729 7.22881386 10.42608883 9 12 C11.55789634 12.57841877 13.94413714 12.68770741 16.5625 12.76953125 C20.160746 13.10975002 22.26611481 14.7328757 25 17 C25.53109375 17.40863281 26.0621875 17.81726563 26.609375 18.23828125 C28.65029572 20.8238297 28.59117657 23.06017099 28.8125 26.3125 C28.90144531 27.42238281 28.99039063 28.53226563 29.08203125 29.67578125 C28.9933941 33.26769638 28.52077921 35.74516158 27 39 C25.07421875 40.50390625 25.07421875 40.50390625 22.6875 41.5625 C21.79546875 41.96210938 20.9034375 42.36171875 19.984375 42.7734375 C18.99953125 43.17820313 18.0146875 43.58296875 17 44 C15.93265625 44.44601563 14.8653125 44.89203125 13.765625 45.3515625 C4.57775049 49.03965297 -3.33707739 51.14604198 -13.25 51.4375 C-13.93618408 51.47206299 -14.62236816 51.50662598 -15.3293457 51.54223633 C-19.37089122 51.57531115 -20.85460172 51.12313179 -23.984375 48.47265625 C-24.64953125 47.65667969 -25.3146875 46.84070313 -26 46 C-24.68 46.33 -23.36 46.66 -22 47 C-22 47.66 -22 48.32 -22 49 C-20.35 49 -18.7 49 -17 49 C-17 48.34 -17 47.68 -17 47 C-17.66 47 -18.32 47 -19 47 C-19.3125 44.6875 -19.3125 44.6875 -19 42 C-16.6875 40.375 -16.6875 40.375 -14 39 C-11.73962715 37.24495089 -11.07434748 36.36038664 -10.48828125 33.51953125 C-10.43027344 32.62621094 -10.37226562 31.73289062 -10.3125 30.8125 C-10.24675781 29.91144531 -10.18101563 29.01039062 -10.11328125 28.08203125 C-10.07589844 27.39496094 -10.03851563 26.70789063 -10 26 C-12.97 26 -15.94 26 -19 26 C-16.97816968 20.53310102 -13.89986058 16.09855726 -10.625 11.3125 C-10.0475 10.44560547 -9.47 9.57871094 -8.875 8.68554688 C-8.31039062 7.85732422 -7.74578125 7.02910156 -7.1640625 6.17578125 C-6.65311035 5.42208252 -6.1421582 4.66838379 -5.61572266 3.8918457 C-3.88734293 1.86809011 -2.44206976 1.00137431 0 0 Z " fill="#F5F7F7" transform="translate(76,89)"/>
<path d="M0 0 C2.46800047 1.15173355 4.04783565 2.04783565 6 4 C6.75597816 7.90721343 6.73764514 11.58639433 4.87890625 15.1484375 C3.66863859 16.82841244 2.34194423 18.42321553 1 20 C2.65 20 4.3 20 6 20 C6 37.49 6 54.98 6 73 C1.38 73 -3.24 73 -8 73 C-8.33 63.76 -8.66 54.52 -9 45 C-8.34 45 -7.68 45 -7 45 C-7 53.91 -7 62.82 -7 72 C-3.04 72 0.92 72 5 72 C4.90642951 65.94910825 4.80032687 59.89861493 4.68261719 53.84814453 C4.64434005 51.78993751 4.60948496 49.73166388 4.578125 47.67333984 C4.53244722 44.71427612 4.47445698 41.75567043 4.4140625 38.796875 C4.40251129 37.87694763 4.39096008 36.95702026 4.37905884 36.00921631 C4.35918915 35.1486261 4.33931946 34.28803589 4.31884766 33.40136719 C4.30552399 32.64635925 4.29220032 31.89135132 4.2784729 31.11346436 C3.96469645 28.73206443 3.18003774 27.07685172 2 25 C1.67 26.32 1.34 27.64 1 29 C-0.66611905 29.042721 -2.33382885 29.04063832 -4 29 C-4.33 28.67 -4.66 28.34 -5 28 C-7.33944736 28.28730055 -9.6739143 28.61936779 -12 29 C-12.04125 29.680625 -12.0825 30.36125 -12.125 31.0625 C-13.37387681 35.25515787 -16.04026731 37.8592439 -19 41 C-20.485 40.505 -20.485 40.505 -22 40 C-22 38.68 -22 37.36 -22 36 C-23.423125 36.2475 -23.423125 36.2475 -24.875 36.5 C-28 37 -28 37 -30 37 C-31.67745682 37.63903117 -33.34561387 38.30341637 -35 39 C-35.14695312 38.38253906 -35.29390625 37.76507813 -35.4453125 37.12890625 C-37.20210827 30.49548773 -39.90599015 25.48517824 -44 20 C-41.36 20 -38.72 20 -36 20 C-36 18.02 -36 16.04 -36 14 C-32.04 14 -28.08 14 -24 14 C-24 11.36 -24 8.72 -24 6 C-20.7 6 -17.4 6 -14 6 C-13.86496518 9.08479556 -13.76588969 12.16368583 -13.6875 15.25 C-13.64560547 16.12269531 -13.60371094 16.99539062 -13.56054688 17.89453125 C-13.51348925 20.36035094 -13.52673084 22.57820612 -14 25 C-16.51953125 27.609375 -16.51953125 27.609375 -19 29 C-14.93883223 29 -13.07421205 26.95373398 -10.125 24.4375 C-9.5885083 23.98221924 -9.0520166 23.52693848 -8.49926758 23.05786133 C-4.57039197 19.64795049 -1.43514081 16.59971042 1 12 C0.90888062 9.46048456 0.90888062 9.46048456 0 7 C-0.03824623 4.66698014 -0.04574284 2.33288492 0 0 Z " fill="#E1CDE9" transform="translate(156,75)"/>
<path d="M0 0 C0.66 0 1.32 0 2 0 C3.6675261 2.30334541 5.22229437 4.60629352 6.75 7 C9.5908563 11.37335586 12.42639535 15.68798348 15.625 19.8125 C18 23 18 23 18 25 C15.03 25 12.06 25 9 25 C9 27.64 9 30.28 9 33 C7.515 32.505 7.515 32.505 6 32 C6 30.02 6 28.04 6 26 C5.34 26 4.68 26 4 26 C4.47581198 27.31371987 4.95575149 28.62594546 5.4375 29.9375 C5.70433594 30.66839844 5.97117187 31.39929688 6.24609375 32.15234375 C6.85386948 33.98305678 6.85386948 33.98305678 8 35 C8.07205511 36.68608966 8.08386068 38.37500659 8.0625 40.0625 C8.05347656 40.98160156 8.04445313 41.90070313 8.03515625 42.84765625 C8.02355469 43.55792969 8.01195313 44.26820313 8 45 C7.34 45 6.68 45 6 45 C5.83723958 43.01432292 5.67447917 41.02864583 5.51171875 39.04296875 C5.17284809 36.90188349 5.17284809 36.90188349 3.47265625 35.58203125 C1.33718452 33.28795684 1.66739781 31.57280135 1.75 28.5 C1.76546875 27.5409375 1.7809375 26.581875 1.796875 25.59375 C2 23 2 23 3 20 C1.68 20 0.36 20 -1 20 C-0.67 20.99 -0.34 21.98 0 23 C0.2295907 26.06120932 0.38063853 29.1210801 0.5234375 32.1875 C1.06015001 35.35498366 1.75549098 35.88647029 4 38 C4.39078556 40.72507798 4.13616953 43.23121956 4 46 C3.34 46 2.68 46 2 46 C2 44.35 2 42.7 2 41 C1.34 41 0.68 41 0 41 C0 42.98 0 44.96 0 47 C-0.66 47 -1.32 47 -2 47 C-2 40.73 -2 34.46 -2 28 C-2.99 28 -3.98 28 -5 28 C-4.67 28.99 -4.34 29.98 -4 31 C-3.92026524 32.33525717 -3.89228662 33.67412083 -3.90234375 35.01171875 C-3.90556641 35.76904297 -3.90878906 36.52636719 -3.91210938 37.30664062 C-3.92048828 38.09232422 -3.92886719 38.87800781 -3.9375 39.6875 C-3.94201172 40.48478516 -3.94652344 41.28207031 -3.95117188 42.10351562 C-3.9629415 44.06904257 -3.98087652 46.03453085 -4 48 C-4.99 48 -5.98 48 -7 48 C-7.33 45.03 -7.66 42.06 -8 39 C-11.1490712 41.7018576 -11.1490712 41.7018576 -12 45 C-13.32 44.67 -14.64 44.34 -16 44 C-16 43.01 -16 42.02 -16 41 C-14.36935236 39.94228261 -12.69719127 38.94726954 -11 38 C-8.74429538 36.23773077 -8.07476062 35.36238928 -7.48828125 32.51953125 C-7.43027344 31.62621094 -7.37226562 30.73289062 -7.3125 29.8125 C-7.24675781 28.91144531 -7.18101563 28.01039062 -7.11328125 27.08203125 C-7.07589844 26.39496094 -7.03851563 25.70789063 -7 25 C-9.97 25 -12.94 25 -16 25 C-14.69629642 21.44978827 -13.14476397 18.49866942 -10.99609375 15.390625 C-10.42052734 14.55402344 -9.84496094 13.71742187 -9.25195312 12.85546875 C-8.65318359 11.99566406 -8.05441406 11.13585937 -7.4375 10.25 C-6.83486328 9.37472656 -6.23222656 8.49945313 -5.61132812 7.59765625 C-1.17569314 1.17569314 -1.17569314 1.17569314 0 0 Z " fill="#4349A8" transform="translate(73,90)"/>
<path d="M0 0 C1.65 0.33 3.3 0.66 5 1 C4.6754533 8.62684742 0.99557279 13.92121685 -4.25 19.3125 C-13.50143196 24.98951507 -22.01136401 25.51754944 -32.625 25.25 C-34.0247138 25.22988824 -35.42445576 25.21164579 -36.82421875 25.1953125 C-40.21687915 25.14851718 -43.60806384 25.08296363 -47 25 C-47 23.68 -47 22.36 -47 21 C-47.87011719 21.05220703 -47.87011719 21.05220703 -48.7578125 21.10546875 C-53.99746699 21.28704094 -57.44166279 20.89065287 -62 18 C-62.66 17.34 -63.32 16.68 -64 16 C-63.67 15.01 -63.34 14.02 -63 13 C-61.99839844 13.97646484 -61.99839844 13.97646484 -60.9765625 14.97265625 C-57.35293534 17.44071727 -54.60205319 17.56325686 -50.375 17.4375 C-49.06273437 17.43621094 -47.75046875 17.43492187 -46.3984375 17.43359375 C-35.69782117 16.7255645 -25.75167328 12.04814114 -15.99023438 7.96484375 C-14.5274707 7.37123047 -14.5274707 7.37123047 -13.03515625 6.765625 C-12.1625415 6.40243164 -11.28992676 6.03923828 -10.39086914 5.66503906 C-7.7502909 4.93054145 -6.56737023 5.22419351 -4 6 C-1.78228936 5.14209817 -1.78228936 5.14209817 0 4 C0 2.68 0 1.36 0 0 Z " fill="#04347E" transform="translate(113,122)"/>
<path d="M0 0 C19.85894749 -0.77878225 19.85894749 -0.77878225 28 4 C28.66386719 4.38542969 29.32773438 4.77085938 30.01171875 5.16796875 C36.55120821 9.4042418 39.95080415 15.60771572 42 23 C42.1875 26 42.1875 26 42 28 C37.57221156 30.74522883 34.28137429 32.48474397 29 33 C28.91363281 32.27554688 28.82726562 31.55109375 28.73828125 30.8046875 C27.79813381 24.33578307 26.8348174 20.4894733 22 16 C18.89363901 14.0763957 16.85199925 13.93057965 13.25 14.0625 C9.47761981 13.79384384 8.28674356 13.28766556 5.5703125 10.5625 C0 2.95040036 0 2.95040036 0 0 Z " fill="#6241AC" transform="translate(77,89)"/>
<path d="M0 0 C1.32 0 2.64 0 4 0 C4.33 2.31 4.66 4.62 5 7 C4.01 7.33 3.02 7.66 2 8 C2 9.32 2 10.64 2 12 C4.475 12.495 4.475 12.495 7 13 C7.33 14.32 7.66 15.64 8 17 C8.66 17 9.32 17 10 17 C9.38722388 19.96175123 8.74627478 21.38058783 7 24 C3.07935143 22.69311714 2.2196784 20.85695653 -0.125 17.5 C-2.38232526 14.10369507 -2.38232526 14.10369507 -5 11 C-5.33 19.25 -5.66 27.5 -6 36 C-10.62 36 -15.24 36 -20 36 C-20 30.38823529 -20 30.38823529 -17.0625 27.3125 C-14.74297052 24.86009717 -14.74297052 24.86009717 -13 22 C-12.34 22 -11.68 22 -11 22 C-10.34 18.7 -9.68 15.4 -9 12 C-11.97 11.505 -11.97 11.505 -15 11 C-12.4650336 8.18911889 -9.58096754 6.36286905 -6.375 4.375 C-3.00896249 2.42174335 -3.00896249 2.42174335 0 0 Z " fill="#4B4DA2" transform="translate(130,111)"/>
<path d="M0 0 C2.46800047 1.15173355 4.04783565 2.04783565 6 4 C6.75597816 7.90721343 6.73764514 11.58639433 4.87890625 15.1484375 C3.66863859 16.82841244 2.34194423 18.42321553 1 20 C2.65 20 4.3 20 6 20 C6 37.49 6 54.98 6 73 C1.38 73 -3.24 73 -8 73 C-8.33 63.76 -8.66 54.52 -9 45 C-8.34 45 -7.68 45 -7 45 C-7 53.91 -7 62.82 -7 72 C-3.04 72 0.92 72 5 72 C4.90642951 65.94910825 4.80032687 59.89861493 4.68261719 53.84814453 C4.64434005 51.78993751 4.60948496 49.73166388 4.578125 47.67333984 C4.53244722 44.71427612 4.47445698 41.75567043 4.4140625 38.796875 C4.40251129 37.87694763 4.39096008 36.95702026 4.37905884 36.00921631 C4.35918915 35.1486261 4.33931946 34.28803589 4.31884766 33.40136719 C4.30552399 32.64635925 4.29220032 31.89135132 4.2784729 31.11346436 C3.96469645 28.73206443 3.18003774 27.07685172 2 25 C1.67 26.32 1.34 27.64 1 29 C-0.66611905 29.042721 -2.33382885 29.04063832 -4 29 C-4.33 28.67 -4.66 28.34 -5 28 C-7.33944736 28.28730055 -9.6739143 28.61936779 -12 29 C-12.04125 29.680625 -12.0825 30.36125 -12.125 31.0625 C-13.37387681 35.25515787 -16.04026731 37.8592439 -19 41 C-19.99 40.67 -20.98 40.34 -22 40 C-22 38.68 -22 37.36 -22 36 C-22.66 35.67 -23.32 35.34 -24 35 C-22.71416016 34.02160156 -22.71416016 34.02160156 -21.40234375 33.0234375 C-8.73878392 23.92189565 -8.73878392 23.92189565 1 12 C0.90888062 9.46048456 0.90888062 9.46048456 0 7 C-0.03824623 4.66698014 -0.04574284 2.33288492 0 0 Z " fill="#9B6DBC" transform="translate(156,75)"/>
<path d="M0 0 C2.475 0.495 2.475 0.495 5 1 C4.8125 2.8125 4.8125 2.8125 4 5 C2.34634594 6.02137457 0.67623498 7.01612294 -1 8 C-2.16327921 9.23378098 -3.30798078 10.48523901 -4.4375 11.75 C-6.25 13.640625 -6.25 13.640625 -8 15 C-8.969375 14.835 -9.93875 14.67 -10.9375 14.5 C-13.96948351 13.65618287 -13.96948351 13.65618287 -16.08203125 15.32421875 C-19.68525668 18.42104493 -21.84094 20.68188001 -24 25 C-21.03 25 -18.06 25 -15 25 C-15 25.33 -15 25.66 -15 26 C-17.31 26.33 -19.62 26.66 -22 27 C-21.59007813 27.51949219 -21.18015625 28.03898437 -20.7578125 28.57421875 C-16.6118979 33.94010343 -13.5983498 37.97112143 -14 45 C-12.02 43.68 -10.04 42.36 -8 41 C-7.34 41.33 -6.68 41.66 -6 42 C-7.3448037 46.03441111 -9.95309903 47.12667247 -13.4375 49.1875 C-14.03626953 49.55552734 -14.63503906 49.92355469 -15.25195312 50.30273438 C-19.72070675 53 -19.72070675 53 -22 53 C-22 54.32 -22 55.64 -22 57 C-24.1875 58.8125 -24.1875 58.8125 -27 60 C-29.67578125 59.57421875 -29.67578125 59.57421875 -32 59 C-31.85848172 56.9163691 -31.71162064 54.83310062 -31.5625 52.75 C-31.48128906 51.58984375 -31.40007812 50.4296875 -31.31640625 49.234375 C-31.06752213 46.69022624 -30.71885058 44.44046752 -30 42 C-28.71682108 45.84953676 -28.93356363 48.94738135 -29 53 C-28.39671875 52.72285156 -27.7934375 52.44570312 -27.171875 52.16015625 C-25.97304687 51.61681641 -25.97304687 51.61681641 -24.75 51.0625 C-23.56664063 50.52302734 -23.56664063 50.52302734 -22.359375 49.97265625 C-20.24176302 49.09966721 -18.23330638 48.48661492 -16 48 C-19.0096734 37.21000067 -21.45498898 30.24096874 -31 24 C-30.01 23.34 -29.02 22.68 -28 22 C-24.1721829 19.31974203 -20.6850774 16.85634674 -17.75 13.1875 C-16 11 -16 11 -14 10.125 C-12 10 -12 10 -10.0703125 10.65625 C-7.97688431 11.24062076 -7.97688431 11.24062076 -6.3671875 9.9609375 C-3.41043833 6.81842398 -1.24665306 4.23862041 0 0 Z " fill="#DCD5E7" transform="translate(135,69)"/>
<path d="M0 0 C2.97 0 5.94 0 9 0 C9.11629782 4.39561039 9.18728634 8.79082429 9.25 13.1875 C9.30027344 15.05631836 9.30027344 15.05631836 9.3515625 16.96289062 C9.36445313 18.16494141 9.37734375 19.36699219 9.390625 20.60546875 C9.41157227 21.71043701 9.43251953 22.81540527 9.45410156 23.95385742 C8.88546891 27.76828195 7.70940133 29.29088776 5 32 C3.35 32.99 1.7 33.98 0 35 C0 23.45 0 11.9 0 0 Z " fill="#AF3CAE" transform="translate(145,62)"/>
<path d="M0 0 C-0.33 1.65 -0.66 3.3 -1 5 C-1.7434668 5.0093457 -2.48693359 5.01869141 -3.25292969 5.02832031 C-26.64455595 5.3959545 -47.28756636 8.15269059 -69 17 C-52.72012735 -1.10639495 -22.17274328 -0.37250667 0 0 Z " fill="#8845A4" transform="translate(132,69)"/>
<path d="M0 0 C2.90802461 2.21928194 4.95312762 3.92969143 7 7 C6.625 10.6875 6.625 10.6875 6 14 C5.34 13.34 4.68 12.68 4 12 C1.42938689 11.35232207 1.42938689 11.35232207 -1 11 C-1 13.97 -1 16.94 -1 20 C-1.66 20.33 -2.32 20.66 -3 21 C-3 27.6 -3 34.2 -3 41 C-3.99 41 -4.98 41 -6 41 C-6.33 38.03 -6.66 35.06 -7 32 C-10.1490712 34.7018576 -10.1490712 34.7018576 -11 38 C-12.32 37.67 -13.64 37.34 -15 37 C-15 36.01 -15 35.02 -15 34 C-13.36935236 32.94228261 -11.69719127 31.94726954 -10 31 C-7.61233715 29.18055499 -7.05704384 28.30089535 -6.48828125 25.30078125 C-6.43027344 24.31464844 -6.37226562 23.32851562 -6.3125 22.3125 C-6.24675781 21.31863281 -6.18101563 20.32476562 -6.11328125 19.30078125 C-6.07589844 18.54152344 -6.03851563 17.78226563 -6 17 C-7.98 17 -9.96 17 -12 17 C-11.6875 15.0625 -11.6875 15.0625 -11 13 C-10.01 12.67 -9.02 12.34 -8 12 C-7.26676204 9.98491642 -7.26676204 9.98491642 -7 8 C-5.02 8 -3.04 8 -1 8 C-2.32 7.67 -3.64 7.34 -5 7 C-5 6.01 -5 5.02 -5 4 C-2.5 1.8125 -2.5 1.8125 0 0 Z " fill="#3546AA" transform="translate(72,97)"/>
<path d="M0 0 C1.32 0 2.64 0 4 0 C3.96519531 0.97582031 3.93039063 1.95164062 3.89453125 2.95703125 C3.86746094 4.22933594 3.84039062 5.50164062 3.8125 6.8125 C3.77769531 8.07707031 3.74289063 9.34164062 3.70703125 10.64453125 C4.02828386 14.32394447 4.38330302 14.71039014 7 17 C7.39078556 19.72507798 7.13616953 22.23121956 7 25 C7.66 25 8.32 25 9 25 C9 21.7 9 18.4 9 15 C9.33 15 9.66 15 10 15 C10 18.3 10 21.6 10 25 C10.99 25.33 11.98 25.66 13 26 C11.41701974 26.4803318 9.83360022 26.95921612 8.25 27.4375 C7.36828125 27.70433594 6.4865625 27.97117188 5.578125 28.24609375 C4.72734375 28.49488281 3.8765625 28.74367187 3 29 C2.09314453 29.28423828 2.09314453 29.28423828 1.16796875 29.57421875 C-2.18497749 30.23272531 -5.53305479 30.30672489 -8.9375 30.375 C-9.99227539 30.43107422 -9.99227539 30.43107422 -11.06835938 30.48828125 C-15.20530009 30.55807032 -16.79036523 30.17610412 -20.00390625 27.4765625 C-20.66261719 26.65929687 -21.32132813 25.84203125 -22 25 C-20.68 25.33 -19.36 25.66 -18 26 C-18 26.66 -18 27.32 -18 28 C-16.35 28 -14.7 28 -13 28 C-13 27.34 -13 26.68 -13 26 C-13.66 26 -14.32 26 -15 26 C-14.67 25.34 -14.34 24.68 -14 24 C-13.01 24.33 -12.02 24.66 -11 25 C-10.9175 24.401875 -10.835 23.80375 -10.75 23.1875 C-10 21 -10 21 -6 18 C-6 21.3 -6 24.6 -6 28 C-5.01 28 -4.02 28 -3 28 C-3.495 18.1 -3.495 18.1 -4 8 C-3.01 8 -2.02 8 -1 8 C-1 14.27 -1 20.54 -1 27 C-0.34 27 0.32 27 1 27 C1 25.02 1 23.04 1 21 C1.66 21 2.32 21 3 21 C3 22.65 3 24.3 3 26 C3.66 26 4.32 26 5 26 C4.896875 24.741875 4.79375 23.48375 4.6875 22.1875 C4.62949219 21.47980469 4.57148437 20.77210938 4.51171875 20.04296875 C4.18701571 17.90904522 4.18701571 17.90904522 2.5 16.71875 C0.1176435 13.98896651 0.42576242 10.77833003 0.3125 7.3125 C0.26125977 6.2596582 0.26125977 6.2596582 0.20898438 5.18554688 C0.12670053 3.45758613 0.0616676 1.72881928 0 0 Z " fill="#E4F1F3" transform="translate(72,110)"/>
<path d="M0 0 C2.475 0.495 2.475 0.495 5 1 C4.125 7.75 4.125 7.75 3 10 C2.01 10.33 1.02 10.66 0 11 C-0.33 11.99 -0.66 12.98 -1 14 C-1.66 14 -2.32 14 -3 14 C-3 14.66 -3 15.32 -3 16 C-6.12290635 15.51421457 -8.99580359 15.0013988 -12 14 C-18.90735111 13.48169948 -23.85539436 13.64839692 -30 17 C-32.72281862 17.25432921 -35.25722946 17.14186744 -38 17 C-38 16.67 -38 16.34 -38 16 C-37.25878906 15.79246094 -36.51757812 15.58492187 -35.75390625 15.37109375 C-28.14870776 13.1463172 -20.96368731 10.44696846 -13.73852539 7.19897461 C-9.92472469 5.5426827 -7.94877286 4.92168707 -4 6 C-1.78228936 5.14209817 -1.78228936 5.14209817 0 4 C0 2.68 0 1.36 0 0 Z " fill="#123185" transform="translate(113,122)"/>
<path d="M0 0 C2.97 0 5.94 0 9 0 C9.18991128 3.0446094 9.32801567 6.07731366 9.4375 9.125 C9.49615234 9.9809375 9.55480469 10.836875 9.61523438 11.71875 C9.78408494 17.99034256 9.78408494 17.99034256 7.48095703 20.95605469 C2.89615484 25 2.89615484 25 0 25 C0 16.75 0 8.5 0 0 Z " fill="#914BA5" transform="translate(133,81)"/>
<path d="M0 0 C0.33 0 0.66 0 1 0 C1 8.58 1 17.16 1 26 C-3.29 26 -7.58 26 -12 26 C-12 20.38823529 -12 20.38823529 -9.0625 17.3125 C-6.74297052 14.86009717 -6.74297052 14.86009717 -5 12 C-4.34 12 -3.68 12 -3 12 C-2.86722656 11.38511719 -2.73445313 10.77023438 -2.59765625 10.13671875 C-2.33275391 8.92435547 -2.33275391 8.92435547 -2.0625 7.6875 C-1.88847656 6.88699219 -1.71445313 6.08648437 -1.53515625 5.26171875 C-1 3 -1 3 0 0 Z " fill="#335C8F" transform="translate(122,121)"/>
<path d="M0 0 C0.99 0 1.98 0 3 0 C3 2.64 3 5.28 3 8 C-0.96 8 -4.92 8 -9 8 C-9 9.65 -9 11.3 -9 13 C-11.97 13 -14.94 13 -18 13 C-18.33 13.66 -18.66 14.32 -19 15 C-19.33 14.34 -19.66 13.68 -20 13 C-11.76159268 3.21837517 -11.76159268 3.21837517 -8 1 C-4.8125 1.375 -4.8125 1.375 -2 2 C-1.34 1.34 -0.68 0.68 0 0 Z " fill="#EDE5EF" transform="translate(129,81)"/>
<path d="M0 0 C4.8162065 -1.05080869 4.8162065 -1.05080869 8 0 C11.93322717 3.98171071 17 9.21779828 17 15 C11.74285714 19 11.74285714 19 9 19 C8.85304688 18.38253906 8.70609375 17.76507813 8.5546875 17.12890625 C6.79789173 10.49548773 4.09400985 5.48517824 0 0 Z " fill="#6E47A9" transform="translate(112,95)"/>
<path d="M0 0 C2.31 0 4.62 0 7 0 C7 6.27 7 12.54 7 19 C5.68 18.67 4.36 18.34 3 18 C2.67 18.99 2.34 19.98 2 21 C1.67 21 1.34 21 1 21 C0.14626761 13.97195301 -0.12109311 7.07721931 0 0 Z " fill="#BB2DB6" transform="translate(146,62)"/>
<path d="M0 0 C3.3 0 6.6 0 10 0 C10 5.61 10 11.22 10 17 C7.36752841 14.36752841 5.02095674 11.95854332 2.75 9.0625 C2.22921875 8.41410156 1.7084375 7.76570313 1.171875 7.09765625 C0 5 0 5 0 0 Z " fill="#7E53A5" transform="translate(121,89)"/>
<path d="M0 0 C2.475 0.495 2.475 0.495 5 1 C4.8125 2.8125 4.8125 2.8125 4 5 C2.34634594 6.02137457 0.67623498 7.01612294 -1 8 C-2.16327921 9.23378098 -3.30798078 10.48523901 -4.4375 11.75 C-6.25 13.640625 -6.25 13.640625 -8 15 C-8.969375 14.835 -9.93875 14.67 -10.9375 14.5 C-13.97335347 13.6478949 -13.97335347 13.6478949 -16.046875 15.359375 C-18.70123887 17.70374017 -21.20152399 20.14158996 -23.61328125 22.734375 C-25 24 -25 24 -27 24 C-25.49091551 20.15869402 -23.1970513 18.51196888 -20 16 C-19.319375 15.113125 -18.63875 14.22625 -17.9375 13.3125 C-16 11 -16 11 -14 10.125 C-12 10 -12 10 -10.0703125 10.65625 C-7.97688431 11.24062076 -7.97688431 11.24062076 -6.3671875 9.9609375 C-3.41043833 6.81842398 -1.24665306 4.23862041 0 0 Z " fill="#A069A9" transform="translate(135,69)"/>
<path d="M0 0 C0.77601562 0.65484375 1.55203125 1.3096875 2.3515625 1.984375 C6.75350346 4.91900231 11.26165674 4.43965324 16.375 4.25 C17.30183594 4.23195312 18.22867188 4.21390625 19.18359375 4.1953125 C21.45681435 4.14844197 23.72785407 4.08285525 26 4 C22.77208445 6.1519437 21.71599191 6.20086443 18 6 C18 7.65 18 9.3 18 11 C27.57 11 37.14 11 47 11 C47 11.33 47 11.66 47 12 C37.1 12 27.2 12 17 12 C17 10.68 17 9.36 17 8 C16.12988281 8.05220703 16.12988281 8.05220703 15.2421875 8.10546875 C10.00253301 8.28704094 6.55833721 7.89065287 2 5 C1.34 4.34 0.68 3.68 0 3 C0 2.01 0 1.02 0 0 Z " fill="#275183" transform="translate(49,135)"/>
<path d="M0 0 C-0.90878906 0.15855469 -1.81757812 0.31710938 -2.75390625 0.48046875 C-13.94124463 2.55729772 -24.44832129 5.67978438 -35 10 C-31.85492831 6.45691676 -28.39925901 4.4110589 -24.1875 2.375 C-23.59646484 2.0759375 -23.00542969 1.776875 -22.39648438 1.46875 C-14.30871888 -2.51780398 -8.18685468 -4.27750009 0 0 Z " fill="#856BA4" transform="translate(98,76)"/>
<path d="M0 0 C0.33 0 0.66 0 1 0 C1.33 3.63 1.66 7.26 2 11 C3.32 11 4.64 11 6 11 C8 14 8 14 7.9375 16.4375 C6.70291335 19.81203684 4.96287096 21.04884108 2 23 C1.34 23 0.68 23 0 23 C0 15.41 0 7.82 0 0 Z " fill="#8135AB" transform="translate(134,82)"/>
<path d="M0 0 C0 0.66 0 1.32 0 2 C-7.12820676 5.31133009 -13.68032667 7.59748968 -21.50390625 8.54296875 C-24.2391982 8.87362906 -24.2391982 8.87362906 -27 11 C-29.04296875 11.1953125 -29.04296875 11.1953125 -31.1875 11.125 C-33.0746875 11.063125 -33.0746875 11.063125 -35 11 C-35 10.67 -35 10.34 -35 10 C-34.25878906 9.79246094 -33.51757812 9.58492187 -32.75390625 9.37109375 C-25.17136668 7.1529457 -18.01647677 4.46894608 -10.82641602 1.19897461 C-6.82960762 -0.54495907 -4.20556404 -1.47030462 0 0 Z " fill="#3C539B" transform="translate(110,128)"/>
<path d="M0 0 C2.46800047 1.15173355 4.04783565 2.04783565 6 4 C6.75597816 7.90721343 6.73764514 11.58639433 4.87890625 15.1484375 C3.66863859 16.82841244 2.34194423 18.42321553 1 20 C2.32 20.33 3.64 20.66 5 21 C3.35 21 1.7 21 0 21 C0 20.01 0 19.02 0 18 C-0.99 17.67 -1.98 17.34 -3 17 C-2.319375 16.278125 -1.63875 15.55625 -0.9375 14.8125 C1.28538677 12.23831122 1.28538677 12.23831122 0.75 9.625 C0.37875 8.325625 0.37875 8.325625 0 7 C-0.03824623 4.66698014 -0.04574284 2.33288492 0 0 Z " fill="#B251B2" transform="translate(156,75)"/>
<path d="M0 0 C7.59 0 15.18 0 23 0 C22.67 1.65 22.34 3.3 22 5 C16.72 5 11.44 5 6 5 C5.67 3.68 5.34 2.36 5 1 C3.35 1 1.7 1 0 1 C0 0.67 0 0.34 0 0 Z " fill="#A547AF" transform="translate(109,69)"/>
<path d="M0 0 C0 2.97 0 5.94 0 9 C-3.3 9.33 -6.6 9.66 -10 10 C-10 5 -10 5 -7.25 2.1875 C-4 0 -4 0 0 0 Z " fill="#174F9A" transform="translate(121,136)"/>
<path d="M0 0 C0.33 0.66 0.66 1.32 1 2 C3.97 2 6.94 2 10 2 C10.90944086 10.52179771 10.90944086 10.52179771 8.76953125 14 C7.1875 15.625 7.1875 15.625 4 18 C3.01 18 2.02 18 1 18 C0.67 18.99 0.34 19.98 0 21 C-0.22174933 19.54364629 -0.42698698 18.08477044 -0.625 16.625 C-0.74101563 15.81289062 -0.85703125 15.00078125 -0.9765625 14.1640625 C-0.98429687 13.44992188 -0.99203125 12.73578125 -1 12 C-0.34 11.34 0.32 10.68 1 10 C3.72869407 10.03287583 6.2966618 10.56397771 9 11 C9 8.36 9 5.72 9 3 C6.03 3 3.06 3 0 3 C0 2.01 0 1.02 0 0 Z " fill="#E5EEF2" transform="translate(56,113)"/>
<path d="M0 0 C4.62 0 9.24 0 14 0 C14.495 2.97 14.495 2.97 15 6 C11.59935419 8.2670972 10.52561858 8.21956161 6.5546875 8.125 C5.47703125 8.10953125 4.399375 8.0940625 3.2890625 8.078125 C1.036446 8.02657771 -1.21615855 7.97450564 -3.46875 7.921875 C-9.28328033 7.83900758 -14.46169474 8.08764355 -20.09667969 9.54589844 C-22.61159876 10.14591761 -24.98536291 10.19759541 -27.5625 10.125 C-28.40941406 10.10695313 -29.25632812 10.08890625 -30.12890625 10.0703125 C-30.74636719 10.04710938 -31.36382812 10.02390625 -32 10 C-22.99974169 4.96734238 -11.26121896 5.62580298 -1.25 5.375 C0.67199219 5.31699219 0.67199219 5.31699219 2.6328125 5.2578125 C5.7550747 5.16461064 8.87734693 5.0788031 12 5 C12.33 3.68 12.66 2.36 13 1 C8.71 1 4.42 1 0 1 C0 0.67 0 0.34 0 0 Z " fill="#E1C2E3" transform="translate(119,68)"/>
<path d="M0 0 C0 6.66733982 -3.73386967 11.27266639 -8 16 C-8.99 15.67 -9.98 15.34 -11 15 C-11 13.68 -11 12.36 -11 11 C-11.66 10.67 -12.32 10.34 -13 10 C-8.71 6.7 -4.42 3.4 0 0 Z " fill="#8151AC" transform="translate(145,100)"/>
<path d="M0 0 C1 3 1 3 -0.3125 5.6875 C-0.869375 6.450625 -1.42625 7.21375 -2 8 C-2.66 8 -3.32 8 -4 8 C-3.67 8.66 -3.34 9.32 -3 10 C-0.97536745 10.65213292 -0.97536745 10.65213292 1 11 C0.34 11.66 -0.32 12.32 -1 13 C-3.625 12.625 -3.625 12.625 -6 12 C-6.33 13.65 -6.66 15.3 -7 17 C-7.99 17 -8.98 17 -10 17 C-10.33 18.32 -10.66 19.64 -11 21 C-9.02 21 -7.04 21 -5 21 C-5 21.33 -5 21.66 -5 22 C-7.97 22 -10.94 22 -14 22 C-12.33383155 16.73786039 -9.06931631 12.60840413 -5.875 8.1875 C-5.31167969 7.39923828 -4.74835938 6.61097656 -4.16796875 5.79882812 C-2.78322342 3.86253169 -1.39381373 1.92977359 0 0 Z " fill="#4962A2" transform="translate(71,93)"/>
<path d="M0 0 C0.66 0.33 1.32 0.66 2 1 C0.60375384 6.27470772 -2.73816123 8.91659066 -7 12 C-12.3 15 -12.3 15 -15 15 C-15 14.34 -15 13.68 -15 13 C-13.68 12.67 -12.36 12.34 -11 12 C-11.99 11.34 -12.98 10.68 -14 10 C-12.63016497 6.83884224 -12.0109362 6.0072908 -9 4 C-9 4.66 -9 5.32 -9 6 C-6.03 6.495 -6.03 6.495 -3 7 C-3 6.34 -3 5.68 -3 5 C-2.34 5 -1.68 5 -1 5 C-0.67 3.35 -0.34 1.7 0 0 Z " fill="#093A7E" transform="translate(113,131)"/>
<path d="M0 0 C0.33 0 0.66 0 1 0 C1 3.96 1 7.92 1 12 C1.33 10.02 1.66 8.04 2 6 C2.33 6 2.66 6 3 6 C3 11.61 3 17.22 3 23 C2.01 23 1.02 23 0 23 C-0.33 20.03 -0.66 17.06 -1 14 C-4.1490712 16.7018576 -4.1490712 16.7018576 -5 20 C-6.32 19.67 -7.64 19.34 -9 19 C-9 18.01 -9 17.02 -9 16 C-7.36935236 14.94228261 -5.69719127 13.94726954 -4 13 C-1.74429538 11.23773077 -1.07476062 10.36238928 -0.48828125 7.51953125 C-0.43027344 6.62621094 -0.37226562 5.73289062 -0.3125 4.8125 C-0.24675781 3.91144531 -0.18101563 3.01039062 -0.11328125 2.08203125 C-0.07589844 1.39496094 -0.03851563 0.70789063 0 0 Z " fill="#5077A4" transform="translate(66,115)"/>
<path d="M0 0 C0.78117187 0.02707031 1.56234375 0.05414063 2.3671875 0.08203125 C2.94726562 0.11683594 3.52734375 0.15164062 4.125 0.1875 C0.31841744 2.7252217 -3.53744284 3.8269846 -7.875 5.1875 C-9.5146875 5.744375 -9.5146875 5.744375 -11.1875 6.3125 C-16.37265019 7.54287462 -21.56585249 7.85622314 -26.875 8.1875 C-26.875 7.5275 -26.875 6.8675 -26.875 6.1875 C-25.24691406 5.91486328 -25.24691406 5.91486328 -23.5859375 5.63671875 C-22.14053863 5.38330466 -20.69523082 5.12937075 -19.25 4.875 C-18.18072266 4.69807617 -18.18072266 4.69807617 -17.08984375 4.51757812 C-11.09385116 3.44490055 -6.07442621 -0.27611028 0 0 Z " fill="#0B489E" transform="translate(93.875,134.8125)"/>
<path d="M0 0 C-1.15173355 2.46800047 -2.04783565 4.04783565 -4 6 C-4.928125 5.773125 -5.85625 5.54625 -6.8125 5.3125 C-7.864375 5.209375 -8.91625 5.10625 -10 5 C-12.68743506 7.27073609 -12.68743506 7.27073609 -15 10 C-17.3125 11.3125 -17.3125 11.3125 -19 12 C-18.6875 10.0625 -18.6875 10.0625 -18 8 C-17.01 7.67 -16.02 7.34 -15 7 C-14.26676204 4.98491642 -14.26676204 4.98491642 -14 3 C-13.01 3 -12.02 3 -11 3 C-11 2.34 -11 1.68 -11 1 C-9.54182203 0.83197949 -8.0834516 0.66562857 -6.625 0.5 C-5.81289062 0.4071875 -5.00078125 0.314375 -4.1640625 0.21875 C-2 0 -2 0 0 0 Z " fill="#F0E5F1" transform="translate(131,75)"/>
<path d="M0 0 C19.00455581 -0.55353075 19.00455581 -0.55353075 27 3 C26.34 3.66 25.68 4.32 25 5 C24.13375 4.690625 23.2675 4.38125 22.375 4.0625 C16.42986735 2.32696438 10.14860618 2.32405969 4 2 C4.34786708 3.97536745 4.34786708 3.97536745 5 6 C5.66 6.33 6.32 6.66 7 7 C6.34 7.66 5.68 8.32 5 9 C4.16094435 7.87926138 3.32892169 6.75325453 2.5 5.625 C2.0359375 4.99851562 1.571875 4.37203125 1.09375 3.7265625 C0 2 0 2 0 0 Z " fill="#785CA3" transform="translate(77,89)"/>
<path d="M0 0 C0.99 0 1.98 0 3 0 C2.54177532 3.46941546 2.10868317 6.67395049 1 10 C0.34 10 -0.32 10 -1 10 C-1.2475 10.7425 -1.495 11.485 -1.75 12.25 C-3 15 -3 15 -5.0625 17 C-7.31873885 19.32902075 -7.64762415 20.82861733 -8 24 C-8.33 24 -8.66 24 -9 24 C-9.875 21.4375 -9.875 21.4375 -10 18 C-8.69562192 16.18560558 -7.18885901 14.6845359 -5.63671875 13.078125 C-2.62815269 9.25817955 -1.41375007 4.59884581 0 0 Z " fill="#C9DEEC" transform="translate(118,123)"/>
<path d="M0 0 C0 0.66 0 1.32 0 2 C-1.32 2.33 -2.64 2.66 -4 3 C-4 3.66 -4 4.32 -4 5 C-3.01 5.33 -2.02 5.66 -1 6 C-1.33 14.58 -1.66 23.16 -2 32 C-2.33 32 -2.66 32 -3 32 C-3.33 24.41 -3.66 16.82 -4 9 C-6.31 8.34 -8.62 7.68 -11 7 C-8.21677024 3.90752249 -4.31039412 0 0 0 Z " fill="#807CB9" transform="translate(126,115)"/>
<path d="M0 0 C0.33 0.66 0.66 1.32 1 2 C2.7763932 3.0745356 2.7763932 3.0745356 4 3 C7 3 10 3 13 3 C13 3.33 13 3.66 13 4 C10.69 4.33 8.38 4.66 6 5 C6.42152344 5.53109375 6.84304687 6.0621875 7.27734375 6.609375 C7.82519531 7.31578125 8.37304688 8.0221875 8.9375 8.75 C9.48277344 9.44609375 10.02804688 10.1421875 10.58984375 10.859375 C11.97425654 12.96092128 12.56286987 14.54321799 13 17 C12.01 17.33 11.02 17.66 10 18 C9.76925781 17.48050781 9.53851563 16.96101563 9.30078125 16.42578125 C7.11696218 11.75603375 4.88305796 8.49475216 1 5 C-0.33333333 3.66666667 -1.66666667 2.33333333 -3 1 C-2.01 0.67 -1.02 0.34 0 0 Z " fill="#D5C2E3" transform="translate(107,91)"/>
<path d="M0 0 C0.33 0 0.66 0 1 0 C1.33 4.95 1.66 9.9 2 15 C3.65 14.34 5.3 13.68 7 13 C7 11.68 7 10.36 7 9 C7.66 9 8.32 9 9 9 C9.38269307 12.34856435 9.16377251 13.74524277 7.3125 16.625 C5 19 5 19 0 22 C0 14.74 0 7.48 0 0 Z " fill="#874298" transform="translate(145,75)"/>
<path d="M0 0 C2.67927341 4.01891012 2.15601248 6.24161923 2 11 C2.78375 10.79375 3.5675 10.5875 4.375 10.375 C5.674375 10.189375 5.674375 10.189375 7 10 C9 12 9 12 9 15 C6.8125 16.75 6.8125 16.75 4 18 C1.32421875 17.578125 1.32421875 17.578125 -1 17 C-0.9278125 16.10796875 -0.855625 15.2159375 -0.78125 14.296875 C-0.6884375 13.12640625 -0.595625 11.9559375 -0.5 10.75 C-0.4071875 9.58984375 -0.314375 8.4296875 -0.21875 7.234375 C-0.05595356 4.82731342 0 2.41256049 0 0 Z " fill="#ADADC9" transform="translate(104,111)"/>
<path d="M0 0 C1.32 1.65 2.64 3.3 4 5 C4.66 5.66 5.32 6.32 6 7 C6.26991906 9.68839385 6.08737357 12.29141936 6 15 C5.34 15 4.68 15 4 15 C4 13.35 4 11.7 4 10 C3.34 10 2.68 10 2 10 C2 11.98 2 13.96 2 16 C1.34 16 0.68 16 0 16 C0 10.72 0 5.44 0 0 Z " fill="#2E579B" transform="translate(71,121)"/>
<path d="M0 0 C0.66 0 1.32 0 2 0 C3.28006797 1.78398614 4.47660351 3.62853906 5.625 5.5 C6.25664063 6.5209375 6.88828125 7.541875 7.5390625 8.59375 C8.02117187 9.3878125 8.50328125 10.181875 9 11 C8.01 11.495 8.01 11.495 7 12 C7 11.34 7 10.68 7 10 C6.236875 10.04125 5.47375 10.0825 4.6875 10.125 C2 10 2 10 -1 8 C-1.99 8.495 -1.99 8.495 -3 9 C-2.01 6.03 -1.02 3.06 0 0 Z " fill="#544AA1" transform="translate(73,90)"/>
<path d="M0 0 C1.32 0 2.64 0 4 0 C3.96519531 0.96421875 3.93039063 1.9284375 3.89453125 2.921875 C3.86746094 4.18515625 3.84039062 5.4484375 3.8125 6.75 C3.77769531 8.00296875 3.74289063 9.2559375 3.70703125 10.546875 C4.0233283 14.27496293 4.73298121 15.20240234 7 18 C7.09724916 20.80487038 6.51072421 23.2142316 6 26 C5.67 26 5.34 26 5 26 C4.83723958 24.01432292 4.67447917 22.02864583 4.51171875 20.04296875 C4.18701571 17.90904522 4.18701571 17.90904522 2.5 16.71875 C0.1176435 13.98896651 0.42576242 10.77833003 0.3125 7.3125 C0.27833984 6.61060547 0.24417969 5.90871094 0.20898438 5.18554688 C0.12670053 3.45758613 0.0616676 1.72881928 0 0 Z " fill="#A4BAD5" transform="translate(72,110)"/>
<path d="M0 0 C0.66 0 1.32 0 2 0 C2.12375 1.134375 2.2475 2.26875 2.375 3.4375 C2.58125 4.613125 2.7875 5.78875 3 7 C3.66 7.33 4.32 7.66 5 8 C4.01 8.495 4.01 8.495 3 9 C2.67 15.27 2.34 21.54 2 28 C1.67 28 1.34 28 1 28 C0.20274098 20.63959083 -0.12886183 13.40239645 0 6 C-2.97 5.505 -2.97 5.505 -6 5 C-5.67 3.68 -5.34 2.36 -5 1 C-4.34 1.33 -3.68 1.66 -3 2 C-3.33 2.66 -3.66 3.32 -4 4 C-2.68 3.67 -1.36 3.34 0 3 C0 2.01 0 1.02 0 0 Z " fill="#224B9B" transform="translate(66,109)"/>
<path d="M0 0 C2.22475098 2.22475098 2.65344345 3.59735744 3.5625 6.5625 C4.33211636 9.5425132 4.33211636 9.5425132 6 12 C6.07205511 13.68608966 6.08386068 15.37500659 6.0625 17.0625 C6.05347656 17.98160156 6.04445313 18.90070313 6.03515625 19.84765625 C6.02355469 20.55792969 6.01195313 21.26820313 6 22 C5.34 22 4.68 22 4 22 C3.83723958 20.01432292 3.67447917 18.02864583 3.51171875 16.04296875 C3.1743419 13.9013098 3.1743419 13.9013098 1.46875 12.59375 C-0.68992946 10.25135314 -0.29742201 8.42695707 -0.1875 5.3125 C-0.16042969 4.31863281 -0.13335937 3.32476562 -0.10546875 2.30078125 C-0.07066406 1.54152344 -0.03585938 0.78226562 0 0 Z " fill="#465E9D" transform="translate(75,113)"/>
<path d="M0 0 C-0.1875 2.3125 -0.1875 2.3125 -1 5 C-4.4524508 7.76196064 -7.65818169 8.49513741 -12 9 C-11.43447641 5.71996319 -10.67167078 4.02678473 -8 2 C-2.84210526 0 -2.84210526 0 0 0 Z " fill="#453D96" transform="translate(118,113)"/>
<path d="M0 0 C5.28025648 -0.43280791 5.28025648 -0.43280791 8 0 C10.125 2.25 10.125 2.25 11 5 C10.1875 7.3125 10.1875 7.3125 9 9 C8.34 8.67 7.68 8.34 7 8 C7 7.34 7 6.68 7 6 C6.01 6 5.02 6 4 6 C1.8125 3 1.8125 3 0 0 Z " fill="#7548A5" transform="translate(112,95)"/>
<path d="M0 0 C0 0.66 0 1.32 0 2 C-2.97 2 -5.94 2 -9 2 C-9 4.64 -9 7.28 -9 10 C-9.99 9.67 -10.98 9.34 -12 9 C-12 7.02 -12 5.04 -12 3 C-12.66 2.67 -13.32 2.34 -14 2 C-13.01 2 -12.02 2 -11 2 C-11 1.34 -11 0.68 -11 0 C-3.57142857 -1.28571429 -3.57142857 -1.28571429 0 0 Z " fill="#5561A2" transform="translate(91,113)"/>
<path d="M0 0 C3.80969609 4.65629522 3.80969609 4.65629522 5.02734375 6.85546875 C6.21669321 8.90826053 7.21805274 10.42218989 9 12 C12.34758611 12.87931985 15.54864705 13.04691159 19 13 C19 13.33 19 13.66 19 14 C15.7 14 12.4 14 9 14 C8.67 14.66 8.34 15.32 8 16 C6.4662827 13.90421865 4.94819163 11.79977463 3.4375 9.6875 C2.78104492 8.79514648 2.78104492 8.79514648 2.11132812 7.88476562 C0.99424864 6.31029927 -0.01102259 4.65793081 -1 3 C-0.67 2.01 -0.34 1.02 0 0 Z " fill="#DBD2EC" transform="translate(76,89)"/>
<path d="M0 0 C0.66 0.33 1.32 0.66 2 1 C2 2.98 2 4.96 2 7 C1.34 7 0.68 7 0 7 C-0.33 7.66 -0.66 8.32 -1 9 C-2.65 8.67 -4.3 8.34 -6 8 C-6.99 9.485 -6.99 9.485 -8 11 C-8 9.35 -8 7.7 -8 6 C-8.66 6 -9.32 6 -10 6 C-10 5.34 -10 4.68 -10 4 C-8.906875 4.0825 -7.81375 4.165 -6.6875 4.25 C-2.96557142 4.41103961 -2.96557142 4.41103961 -1.0625 2 C-0.711875 1.34 -0.36125 0.68 0 0 Z " fill="#F5F8F7" transform="translate(141,62)"/>
<path d="M0 0 C-0.1875 1.8125 -0.1875 1.8125 -1 4 C-2.64333504 5.03789581 -4.31243867 6.03567924 -6 7 C-7.78344178 9.06954847 -7.78344178 9.06954847 -9 11 C-9 10.34 -9 9.68 -9 9 C-9.99 9 -10.98 9 -12 9 C-12 8.34 -12 7.68 -12 7 C-10.68 6.67 -9.36 6.34 -8 6 C-8 5.01 -8 4.02 -8 3 C-5.0936485 0.19744677 -4.21174952 0 0 0 Z " fill="#6347A4" transform="translate(134,111)"/>
<path d="M0 0 C0.33 0 0.66 0 1 0 C1 3.3 1 6.6 1 10 C1.99 10.33 2.98 10.66 4 11 C-0.32734391 13.22923777 -3.28400182 12.92470553 -8 12 C-8 10.02 -8 8.04 -8 6 C-7.34 6 -6.68 6 -6 6 C-6 7.65 -6 9.3 -6 11 C-5.01 11 -4.02 11 -3 11 C-3 8.36 -3 5.72 -3 3 C-2.67 3 -2.34 3 -2 3 C-2 5.31 -2 7.62 -2 10 C-1.34 10 -0.68 10 0 10 C0 6.7 0 3.4 0 0 Z " fill="#B5CDE1" transform="translate(81,125)"/>
<path d="M0 0 C0.99 0.33 1.98 0.66 3 1 C2.67 2.32 2.34 3.64 2 5 C1.34 5 0.68 5 0 5 C-0.66 6.32 -1.32 7.64 -2 9 C-3.32 9 -4.64 9 -6 9 C-5.70381606 5.44579276 -5.19662957 4.19662957 -2.625 1.625 C-1.325625 0.820625 -1.325625 0.820625 0 0 Z " fill="#43368B" transform="translate(132,114)"/>
<path d="M0 0 C0.99 0 1.98 0 3 0 C3 6.27 3 12.54 3 19 C3.66 19.33 4.32 19.66 5 20 C3.68 20 2.36 20 1 20 C0.67 13.4 0.34 6.8 0 0 Z " fill="#A4C2D7" transform="translate(68,118)"/>
<path d="M0 0 C1.65 0 3.3 0 5 0 C5 2.64 5 5.28 5 8 C4.01 8 3.02 8 2 8 C1.67 8.99 1.34 9.98 1 11 C0.67 11 0.34 11 0 11 C0 7.37 0 3.74 0 0 Z " fill="#CA26BE" transform="translate(147,64)"/>
<path d="M0 0 C1.65 0.33 3.3 0.66 5 1 C4.25 7.75 4.25 7.75 2 10 C2 9.01 2 8.02 2 7 C0.35 6.67 -1.3 6.34 -3 6 C-2.67 5.34 -2.34 4.68 -2 4 C-1.34 4 -0.68 4 0 4 C0 2.68 0 1.36 0 0 Z " fill="#363783" transform="translate(113,122)"/>
<path d="M0 0 C0.77601562 0.65484375 1.55203125 1.3096875 2.3515625 1.984375 C6.75350346 4.91900231 11.26165674 4.43965324 16.375 4.25 C17.30183594 4.23195312 18.22867188 4.21390625 19.18359375 4.1953125 C21.45681435 4.14844197 23.72785407 4.08285525 26 4 C22.02311508 6.65125662 18.80338267 6.59236321 14.125 6.875 C13.32191406 6.9471875 12.51882812 7.019375 11.69140625 7.09375 C7.5838196 7.3508971 5.56288684 7.33085715 1.9296875 5.1953125 C0 3 0 3 0 0 Z " fill="#466D9C" transform="translate(49,135)"/>
<path d="M0 0 C1.32 0.66 2.64 1.32 4 2 C4 2.66 4 3.32 4 4 C7.3 4.33 10.6 4.66 14 5 C14 5.33 14 5.66 14 6 C11.43571485 6.13559675 8.87864784 6.23433188 6.3125 6.3125 C5.59126953 6.35439453 4.87003906 6.39628906 4.12695312 6.43945312 C-0.19577396 6.53814552 -1.54532962 6.37938214 -5.01953125 3.48046875 C-5.99986328 2.25263672 -5.99986328 2.25263672 -7 1 C-5.68 1.33 -4.36 1.66 -3 2 C-3 2.66 -3 3.32 -3 4 C-1.35 4 0.3 4 2 4 C2 3.34 2 2.68 2 2 C1.34 2 0.68 2 0 2 C0 1.34 0 0.68 0 0 Z " fill="#CBDFED" transform="translate(57,134)"/>
<path d="M0 0 C0 0.66 0 1.32 0 2 C0.66 2.66 1.32 3.32 2 4 C-4.75 8 -4.75 8 -7 8 C-7.33 6.68 -7.66 5.36 -8 4 C-3.375 0 -3.375 0 0 0 Z " fill="#F3F1EF" transform="translate(74,74)"/>
<path d="M0 0 C-4.12581451 1.99317997 -7.28058991 2.17706652 -11.83203125 1.9765625 C-13.12431641 1.925 -14.41660156 1.8734375 -15.74804688 1.8203125 C-17.10287597 1.75544582 -18.45769358 1.69033864 -19.8125 1.625 C-21.18680676 1.56670491 -22.56115603 1.50940288 -23.93554688 1.453125 C-27.29091149 1.31184649 -30.64550632 1.16044747 -34 1 C-34 0.67 -34 0.34 -34 0 C-29.80103014 -0.168035 -25.60185961 -0.32854866 -21.40234375 -0.48217773 C-19.97453122 -0.53546157 -18.54679306 -0.59077975 -17.11914062 -0.64819336 C-15.06396518 -0.73048625 -13.00863107 -0.80539678 -10.953125 -0.87890625 C-9.71723633 -0.9260376 -8.48134766 -0.97316895 -7.20800781 -1.02172852 C-4.54105481 -1.00366468 -2.51376586 -0.8150529 0 0 Z " fill="#BED1DE" transform="translate(100,147)"/>
<path d="M0 0 C0.33 0 0.66 0 1 0 C1.34242942 3.41356534 1.61496917 6.82924965 1.875 10.25 C2.02195313 11.70212891 2.02195313 11.70212891 2.171875 13.18359375 C2.65763091 20.22705449 2.65763091 20.22705449 0.66894531 22.56445312 C-0.9921875 23.671875 -0.9921875 23.671875 -4 25 C-4.66 24.34 -5.32 23.68 -6 23 C-5.19175781 22.54109375 -4.38351563 22.0821875 -3.55078125 21.609375 C0.176111 17.79687267 -0.22170933 14.39660347 -0.1875 9.25 C-0.16236328 8.36183594 -0.13722656 7.47367187 -0.11132812 6.55859375 C-0.0525474 4.37195082 -0.01620461 2.18730468 0 0 Z " fill="#D1B3DB" transform="translate(142,81)"/>
<path d="M0 0 C2.60018816 3.90028225 2.15085514 7.47434569 2 12 C1.01 11.67 0.02 11.34 -1 11 C-1.75 9.0625 -1.75 9.0625 -2 7 C-1.67 6.34 -1.34 5.68 -1 5 C-1.66 5 -2.32 5 -3 5 C-3 4.01 -3 3.02 -3 2 C-2.01 1.34 -1.02 0.68 0 0 Z " fill="#7243AD" transform="translate(128,91)"/>
<path d="M0 0 C0.66 0 1.32 0 2 0 C1.67 3.3 1.34 6.6 1 10 C-1.97 9.505 -1.97 9.505 -5 9 C-3.7580393 5.56072421 -2.44259716 2.74792181 0 0 Z " fill="#E9E6EE" transform="translate(146,121)"/>
<path d="M0 0 C0.33 0.66 0.66 1.32 1 2 C-2.18824568 3.59412284 -5.62896662 3.10174735 -9.125 3.0625 C-9.87910156 3.05798828 -10.63320312 3.05347656 -11.41015625 3.04882812 C-13.27347127 3.03703499 -15.13674555 3.01909942 -17 3 C-11.94682281 -0.36878479 -5.93922223 -0.14848056 0 0 Z " fill="#9756B2" transform="translate(109,70)"/>
<path d="M0 0 C2.475 0.99 2.475 0.99 5 2 C5 2.66 5 3.32 5 4 C5.9590625 4.4640625 5.9590625 4.4640625 6.9375 4.9375 C9 6 9 6 10 7 C10.14115161 9.67058851 10.04247107 12.32432238 10 15 C8 12 8 12 6.6875 9.1875 C4.80058612 5.62332935 2.65826602 3.01749116 0 0 Z " fill="#5C4D9C" transform="translate(97,102)"/>
<path d="M0 0 C0.99 0 1.98 0 3 0 C3 0.66 3 1.32 3 2 C3.99 2 4.98 2 6 2 C6 2.99 6 3.98 6 5 C2.7 5 -0.6 5 -4 5 C-2.1875 2.5 -2.1875 2.5 0 0 Z " fill="#F5F6F1" transform="translate(137,75)"/>
<path d="M0 0 C1.65 0.33 3.3 0.66 5 1 C4.875 2.8125 4.875 2.8125 4 5 C0.9375 6.75 0.9375 6.75 -2 8 C-2 4.79604584 -1.25664978 2.90600261 0 0 Z " fill="#BA56B8" transform="translate(135,69)"/>
<path d="M0 0 C4.95 0 9.9 0 15 0 C14.67 0.99 14.34 1.98 14 3 C12.22844346 2.88570603 10.45773771 2.75816963 8.6875 2.625 C7.70136719 2.55539063 6.71523437 2.48578125 5.69921875 2.4140625 C3 2 3 2 0 0 Z " fill="#DDEBF1" transform="translate(110,147)"/>
<path d="M0 0 C1.32 0.66 2.64 1.32 4 2 C3.01 2 2.02 2 1 2 C1.33 2.99 1.66 3.98 2 5 C2.0685495 6.89470816 2.08480372 8.7916834 2.0625 10.6875 C2.05347656 11.68136719 2.04445313 12.67523438 2.03515625 13.69921875 C2.02355469 14.45847656 2.01195313 15.21773437 2 16 C0 13 0 13 0 10 C-0.66 9.67 -1.32 9.34 -2 9 C-2 8.34 -2 7.68 -2 7 C-1.34 7 -0.68 7 0 7 C0 4.69 0 2.38 0 0 Z " fill="#4A5EA7" transform="translate(71,108)"/>
<path d="M0 0 C0.33 1.32 0.66 2.64 1 4 C-4.75 9 -4.75 9 -7 9 C-7 7.68 -7 6.36 -7 5 C-5.46875 3.515625 -5.46875 3.515625 -3.5 2.25 C-2.8503125 1.82203125 -2.200625 1.3940625 -1.53125 0.953125 C-1.0259375 0.63859375 -0.520625 0.3240625 0 0 Z " fill="#663A8F" transform="translate(141,96)"/>
<path d="M0 0 C0.66 0 1.32 0 2 0 C2 2.64 2 5.28 2 8 C-0.64 7.67 -3.28 7.34 -6 7 C-5.67 6.01 -5.34 5.02 -5 4 C-3.66666667 3.66666667 -2.33333333 3.33333333 -1 3 C-0.67 2.01 -0.34 1.02 0 0 Z " fill="#F8F6F9" transform="translate(130,81)"/>
<path d="M0 0 C0.99 0 1.98 0 3 0 C3.33 3.3 3.66 6.6 4 10 C3.01 10.33 2.02 10.66 1 11 C0.67 7.37 0.34 3.74 0 0 Z " fill="#9331B6" transform="translate(135,82)"/>
<path d="M0 0 C-1.60320974 0.19551338 -3.20762986 0.38111983 -4.8125 0.5625 C-5.70582031 0.66691406 -6.59914063 0.77132812 -7.51953125 0.87890625 C-10 1 -10 1 -13 0 C-14.33106622 -0.34227417 -15.66400079 -0.67751743 -17 -1 C-10.36480367 -3.25596675 -6.16915199 -3.22328284 0 0 Z " fill="#915EB7" transform="translate(98,76)"/>
<path d="M0 0 C0.804375 0.309375 1.60875 0.61875 2.4375 0.9375 C6.62249087 2.18565517 10.66306101 2.6337696 15 3 C15 3.33 15 3.66 15 4 C14.31292969 4.06058594 13.62585938 4.12117187 12.91796875 4.18359375 C11.56638672 4.30927734 11.56638672 4.30927734 10.1875 4.4375 C8.84751953 4.55931641 8.84751953 4.55931641 7.48046875 4.68359375 C4.87256441 4.93489767 4.87256441 4.93489767 2 6 C2 5.34 2 4.68 2 4 C1.34 4 0.68 4 0 4 C0 2.68 0 1.36 0 0 Z " fill="#C5DBE8" transform="translate(51,140)"/>
<path d="M0 0 C0 0.99 0 1.98 0 3 C-2.53184488 5.35723489 -3.47190093 6 -7 6 C-7 4.35 -7 2.7 -7 1 C-4 0 -4 0 0 0 Z " fill="#573B8D" transform="translate(129,107)"/>
<path d="M0 0 C3.3 0 6.6 0 10 0 C10 0.66 10 1.32 10 2 C8.35 2 6.7 2 5 2 C5 2.99 5 3.98 5 5 C3.68 4.67 2.36 4.34 1 4 C0.67 2.68 0.34 1.36 0 0 Z " fill="#623AB4" transform="translate(81,91)"/>
<path d="M0 0 C0.33 0 0.66 0 1 0 C1 3.3 1 6.6 1 10 C0.34 10 -0.32 10 -1 10 C-1.66 11.32 -2.32 12.64 -3 14 C-4 12 -4 12 -3.22265625 9.1796875 C-2.83980469 8.08914062 -2.45695312 6.99859375 -2.0625 5.875 C-1.68222656 4.77929688 -1.30195312 3.68359375 -0.91015625 2.5546875 C-0.60980469 1.71164063 -0.30945313 0.86859375 0 0 Z " fill="#363E7A" transform="translate(122,121)"/>
<path d="M0 0 C4.78902145 2.43969017 7.62722182 3.97529326 10 9 C5.06789169 7.76697292 2.78225429 6.28039122 0 2 C0 1.34 0 0.68 0 0 Z " fill="#704BA0" transform="translate(104,93)"/>
<path d="M0 0 C0.66 0 1.32 0 2 0 C2.20086443 3.71599191 2.1519437 4.77208445 0 8 C-2.625 8.1875 -2.625 8.1875 -5 8 C-4.67 7.01 -4.34 6.02 -4 5 C-1.9375 4.3125 -1.9375 4.3125 0 4 C0 2.68 0 1.36 0 0 Z " fill="#862E95" transform="translate(152,84)"/>
<path d="M0 0 C0.66 0 1.32 0 2 0 C2 2.31 2 4.62 2 7 C1.01 7 0.02 7 -1 7 C-1 6.34 -1 5.68 -1 5 C-2.65 5.33 -4.3 5.66 -6 6 C-5 4 -5 4 -2 3 C-1.34 2.01 -0.68 1.02 0 0 Z " fill="#D9C4DA" transform="translate(141,70)"/>
<path d="M0 0 C1.65 0 3.3 0 5 0 C5 0.66 5 1.32 5 2 C8.96 2 12.92 2 17 2 C17 2.33 17 2.66 17 3 C11.06 3 5.12 3 -1 3 C-0.67 2.01 -0.34 1.02 0 0 Z " fill="#9835A7" transform="translate(109,70)"/>
<path d="M0 0 C1.21236328 0.01353516 1.21236328 0.01353516 2.44921875 0.02734375 C3.37154297 0.04474609 3.37154297 0.04474609 4.3125 0.0625 C0.73618771 2.44670819 -1.67060739 3.19392447 -5.875 3.125 C-7.7621875 3.0940625 -7.7621875 3.0940625 -9.6875 3.0625 C-6.66074696 0.03574696 -4.08749979 -0.05923913 0 0 Z " fill="#154394" transform="translate(93.6875,134.9375)"/>
<path d="M0 0 C0.66 0 1.32 0 2 0 C2 2.97 2 5.94 2 9 C1.34 8.01 0.68 7.02 0 6 C-2.58380177 5.74969023 -2.58380177 5.74969023 -5 6 C-4.34 4.68 -3.68 3.36 -3 2 C-2.34 2 -1.68 2 -1 2 C-0.67 1.34 -0.34 0.68 0 0 Z " fill="#385197" transform="translate(121,131)"/>
<path d="M0 0 C1.5625 1.25 1.5625 1.25 3 3 C3.0625 5 3.0625 5 2 7 C-1.0625 8.75 -1.0625 8.75 -4 10 C-4 8.35 -4 6.7 -4 5 C-3.67 5.66 -3.34 6.32 -3 7 C-2.34 7 -1.68 7 -1 7 C-0.67 4.69 -0.34 2.38 0 0 Z " fill="#9B30AC" transform="translate(150,81)"/>
<path d="M0 0 C-1.37154504 2.95409701 -2.98863724 5.44008376 -5 8 C-5.99 7.67 -6.98 7.34 -8 7 C-6.47663111 3.31852519 -4.31953005 0 0 0 Z " fill="#CFB4E3" transform="translate(142,108)"/>
<path d="M0 0 C0.66 0.33 1.32 0.66 2 1 C0.5682479 6.01113235 -1.98445693 7.94469549 -6 11 C-6 9.68 -6 8.36 -6 7 C-5.01 7 -4.02 7 -3 7 C-3 6.34 -3 5.68 -3 5 C-2.34 5 -1.68 5 -1 5 C-0.67 3.35 -0.34 1.7 0 0 Z " fill="#284781" transform="translate(113,131)"/>
<path d="M0 0 C2.5 2.3125 2.5 2.3125 5 5 C5 5.99 5 6.98 5 8 C4.01 8 3.02 8 2 8 C-0.1519437 4.77208445 -0.20086443 3.71599191 0 0 Z " fill="#E6E7EF" transform="translate(124,121)"/>
<path d="M0 0 C0.99 0 1.98 0 3 0 C2.25 6.625 2.25 6.625 0 10 C-0.74926071 6.33694766 -1.2380014 3.57644848 0 0 Z " fill="#BAC0D6" transform="translate(118,123)"/>
<path d="M0 0 C1.65 0 3.3 0 5 0 C5 2.64 5 5.28 5 8 C4.01 7.67 3.02 7.34 2 7 C2 5.02 2 3.04 2 1 C1.34 0.67 0.68 0.34 0 0 Z " fill="#7B85AF" transform="translate(77,115)"/>
<path d="M0 0 C0.99 0.33 1.98 0.66 3 1 C1.35 2.65 -0.3 4.3 -2 6 C-1.34 6 -0.68 6 0 6 C0 6.66 0 7.32 0 8 C-2.31 7.67 -4.62 7.34 -7 7 C-4.66666667 4.66666667 -2.33333333 2.33333333 0 0 Z " fill="#9B46A8" transform="translate(153,93)"/>
<path d="M0 0 C0.66 0.33 1.32 0.66 2 1 C0.71451591 2.33929505 -0.57858155 3.67128643 -1.875 5 C-2.59429687 5.7425 -3.31359375 6.485 -4.0546875 7.25 C-6 9 -6 9 -8 9 C-6.4169423 4.7257442 -3.49431596 2.73468206 0 0 Z " fill="#876AA0" transform="translate(116,84)"/>
<path d="M0 0 C-0.66 1.32 -1.32 2.64 -2 4 C-3.32 4 -4.64 4 -6 4 C-6 2.68 -6 1.36 -6 0 C-3.50907189 -1.24546405 -2.58919267 -0.7767578 0 0 Z " fill="#4F41AE" transform="translate(138,119)"/>
<path d="M0 0 C2 0 2 0 3.58203125 1.17578125 C5.42460157 3.54625051 5.49447732 5.21495078 5.6875 8.1875 C5.75324219 9.08855469 5.81898437 9.98960938 5.88671875 10.91796875 C5.92410156 11.60503906 5.96148437 12.29210937 6 13 C5.34 13 4.68 13 4 13 C3.79503906 12.31292969 3.59007813 11.62585938 3.37890625 10.91796875 C3.10949219 10.01691406 2.84007813 9.11585937 2.5625 8.1875 C2.16224609 6.84751953 2.16224609 6.84751953 1.75390625 5.48046875 C1.19612127 3.64526945 0.60655425 1.81966274 0 0 Z " fill="#664997" transform="translate(117,101)"/>
<path d="M0 0 C0.33 0.99 0.66 1.98 1 3 C-0.58133449 6.16266898 -2.38114512 8.63055987 -5 11 C-5.66 10.67 -6.32 10.34 -7 10 C-3.535 5.05 -3.535 5.05 0 0 Z " fill="#6664A3" transform="translate(71,93)"/>
<path d="M0 0 C4.455 0.99 4.455 0.99 9 2 C8.67 2.66 8.34 3.32 8 4 C6.68 4 5.36 4 4 4 C3.01 5.485 3.01 5.485 2 7 C2 5.35 2 3.7 2 2 C1.34 2 0.68 2 0 2 C0 1.34 0 0.68 0 0 Z " fill="#EFE2EF" transform="translate(131,66)"/>
<path d="M0 0 C-5.39068413 3.59378942 -8.53673535 4.45356243 -15 4 C-15 3.67 -15 3.34 -15 3 C-12.87790224 2.30359327 -10.75221473 1.61811643 -8.625 0.9375 C-6.84996094 0.36322266 -6.84996094 0.36322266 -5.0390625 -0.22265625 C-2 -1 -2 -1 0 0 Z " fill="#4C75A7" transform="translate(90,135)"/>
<path d="M0 0 C0.99 0 1.98 0 3 0 C3 3.3 3 6.6 3 10 C2.34 10 1.68 10 1 10 C0.67 6.7 0.34 3.4 0 0 Z " fill="#3A5D97" transform="translate(78,125)"/>
<path d="M0 0 C0.99 0 1.98 0 3 0 C3 1.32 3 2.64 3 4 C5.64 4 8.28 4 11 4 C11 4.33 11 4.66 11 5 C7.7 5 4.4 5 1 5 C0.67 3.35 0.34 1.7 0 0 Z " fill="#5A469A" transform="translate(83,96)"/>
<path d="M0 0 C0.66 0 1.32 0 2 0 C1.50168276 3.68754757 0.89932357 5.60490662 -2 8 C-2 4.23312136 -1.76462683 3.08809695 0 0 Z " fill="#BFD1E3" transform="translate(116,130)"/>
<path d="M0 0 C0.33 0 0.66 0 1 0 C1.125 5.75 1.125 5.75 0 8 C-0.66 8 -1.32 8 -2 8 C-2.125 5.125 -2.125 5.125 -2 2 C-1.34 1.34 -0.68 0.68 0 0 Z " fill="#FAFCF1" transform="translate(127,127)"/>
<path d="M0 0 C0.99 0.33 1.98 0.66 3 1 C2.67 3.31 2.34 5.62 2 8 C1.34 7.67 0.68 7.34 0 7 C0 4.69 0 2.38 0 0 Z " fill="#D2DCDC" transform="translate(47,130)"/>
<path d="M0 0 C0 0.66 0 1.32 0 2 C-3.3 2 -6.6 2 -10 2 C-6.64608848 -1.35391152 -4.35183427 -1.05855428 0 0 Z " fill="#4F559F" transform="translate(110,128)"/>
<path d="M0 0 C2.475 0.495 2.475 0.495 5 1 C4.67 2.32 4.34 3.64 4 5 C2.68 4.67 1.36 4.34 0 4 C0 2.68 0 1.36 0 0 Z " fill="#524696" transform="translate(113,122)"/>
<path d="M0 0 C0 1.32 0 2.64 0 4 C-2.64 4 -5.28 4 -8 4 C-2.7826087 0 -2.7826087 0 0 0 Z " fill="#C5D3E2" transform="translate(108,142)"/>
<path d="M0 0 C0.66 0 1.32 0 2 0 C2.66 1.65 3.32 3.3 4 5 C3.01 5.495 3.01 5.495 2 6 C1.01 5.01 0.02 4.02 -1 3 C-0.67 2.01 -0.34 1.02 0 0 Z " fill="#685AA4" transform="translate(73,90)"/>
<path d="M0 0 C3.96 0.99 3.96 0.99 8 2 C8 2.33 8 2.66 8 3 C4.7 3.33 1.4 3.66 -2 4 C-1.34 2.68 -0.68 1.36 0 0 Z " fill="#EBD9F0" transform="translate(101,67)"/>
<path d="M0 0 C0.99 0.33 1.98 0.66 3 1 C2.25 2.9375 2.25 2.9375 1 5 C-1.125 5.75 -1.125 5.75 -3 6 C-2.01 4.02 -1.02 2.04 0 0 Z " fill="#F1E5F3" transform="translate(131,106)"/>
<path d="M0 0 C1.32 0 2.64 0 4 0 C4 2.64 4 5.28 4 8 C1.53721199 5.53721199 1.00228745 3.29323018 0 0 Z " fill="#8B34A7" transform="translate(157,96)"/>
</svg>
